<?xml version="1.0" encoding="UTF-8" standalone="no"?>
<!-- Generator: Adobe Illustrator 24.1.1, SVG Export Plug-In . SVG Version: 6.00 Build 0)  -->

<svg
   version="1.1"
   id="Layer_1"
   x="0px"
   y="0px"
   viewBox="0 0 512 512"
   style="enable-background:new 0 0 512 512;"
   xml:space="preserve"
   sodipodi:docname="refresh.svg"
   inkscape:version="1.1 (c68e22c387, 2021-05-23)"
   xmlns:inkscape="http://www.inkscape.org/namespaces/inkscape"
   xmlns:sodipodi="http://sodipodi.sourceforge.net/DTD/sodipodi-0.dtd"
   xmlns="http://www.w3.org/2000/svg"
   xmlns:svg="http://www.w3.org/2000/svg"><defs
   id="defs9" /><sodipodi:namedview
   id="namedview7"
   pagecolor="#505050"
   bordercolor="#eeeeee"
   borderopacity="1"
   inkscape:pageshadow="0"
   inkscape:pageopacity="0"
   inkscape:pagecheckerboard="0"
   showgrid="false"
   inkscape:zoom="1.6445312"
   inkscape:cx="255.69596"
   inkscape:cy="256.30404"
   inkscape:window-width="1920"
   inkscape:window-height="1027"
   inkscape:window-x="-8"
   inkscape:window-y="-8"
   inkscape:window-maximized="1"
   inkscape:current-layer="g4" />
<g
   id="g4">
	<path
   d="M 467.4,146.7 C 428.6,64.8 344.2,8.9 247.2,8.8 110.7,8.9 0,119.5 0,256 0,392.5 110.7,503.1 247.2,503.2 383.7,503.2 494.3,392.5 494.4,256 h -70.6 c 0,48.9 -19.7,92.8 -51.7,124.8 -32.1,32 -76,51.7 -124.8,51.7 -48.9,0 -92.8,-19.7 -124.8,-51.7 -32,-32.1 -51.7,-76 -51.7,-124.8 0,-48.9 19.7,-92.8 51.7,-124.8 32.1,-32 76,-51.7 124.8,-51.7 69.5,0 129.2,40.1 156.4,97.5 z M 441.4,44.1 V 150 h -106 v 70.6 H 512 V 44.1 Z"
   id="path2"
   style="opacity:1;stroke:none;stroke-opacity:1;fill:#ffffff;fill-opacity:1;stroke-width:1;stroke-miterlimit:4;stroke-dasharray:12, 1;stroke-dashoffset:0" />
</g>
</svg>
